<svg width="749" height="336" viewBox="0 0 749 336" fill="none" xmlns="http://www.w3.org/2000/svg">
<g filter="url(#filter0_d)">
<rect x="40" y="20" width="669" height="256" rx="34" fill="white"/>
<g filter="url(#filter1_d)">
<circle cx="170" cy="150" r="96" fill="#1359E0"/>
<path d="M132.221 194.041L163.576 161.872" stroke="white" stroke-width="8" stroke-linecap="round" stroke-linejoin="round"/>
<path d="M138.723 162.043L163.721 161.723L164.041 186.721" stroke="white" stroke-width="8" stroke-linecap="round" stroke-linejoin="round"/>
<path d="M213.412 112.588L181.647 144.353" stroke="white" stroke-width="8" stroke-linecap="round" stroke-linejoin="round"/>
<path d="M206.5 144.5H181.5V119.5" stroke="white" stroke-width="8" stroke-linecap="round" stroke-linejoin="round"/>
</g>
<path d="M374.74 105.7V148H362.98V124.66L355 148H345.16L337.12 124.48V148H325.36V105.7H339.58L350.2 133.18L360.58 105.7H374.74ZM387.374 111.22C385.294 111.22 383.614 110.66 382.334 109.54C381.094 108.38 380.474 106.94 380.474 105.22C380.474 103.46 381.094 102 382.334 100.84C383.614 99.68 385.294 99.1 387.374 99.1C389.414 99.1 391.054 99.68 392.294 100.84C393.574 102 394.214 103.46 394.214 105.22C394.214 106.94 393.574 108.38 392.294 109.54C391.054 110.66 389.414 111.22 387.374 111.22ZM393.194 114.34V148H381.434V114.34H393.194ZM421.911 114.04C425.791 114.04 428.871 115.34 431.151 117.94C433.431 120.5 434.571 123.98 434.571 128.38V148H422.811V129.94C422.811 128.02 422.311 126.52 421.311 125.44C420.311 124.32 418.971 123.76 417.291 123.76C415.531 123.76 414.151 124.32 413.151 125.44C412.151 126.52 411.651 128.02 411.651 129.94V148H399.891V114.34H411.651V119.14C412.691 117.62 414.091 116.4 415.851 115.48C417.611 114.52 419.631 114.04 421.911 114.04ZM446.964 111.22C444.884 111.22 443.204 110.66 441.924 109.54C440.684 108.38 440.064 106.94 440.064 105.22C440.064 103.46 440.684 102 441.924 100.84C443.204 99.68 444.884 99.1 446.964 99.1C449.004 99.1 450.644 99.68 451.884 100.84C453.164 102 453.804 103.46 453.804 105.22C453.804 106.94 453.164 108.38 451.884 109.54C450.644 110.66 449.004 111.22 446.964 111.22ZM452.784 114.34V148H441.024V114.34H452.784ZM473.821 148.42C470.781 148.42 468.061 147.92 465.661 146.92C463.301 145.88 461.421 144.48 460.021 142.72C458.661 140.92 457.901 138.9 457.741 136.66H469.141C469.301 137.74 469.801 138.58 470.641 139.18C471.481 139.78 472.521 140.08 473.761 140.08C474.721 140.08 475.481 139.88 476.041 139.48C476.601 139.08 476.881 138.56 476.881 137.92C476.881 137.08 476.421 136.46 475.501 136.06C474.581 135.66 473.061 135.22 470.941 134.74C468.541 134.26 466.541 133.72 464.941 133.12C463.341 132.52 461.941 131.54 460.741 130.18C459.581 128.82 459.001 126.98 459.001 124.66C459.001 122.66 459.541 120.86 460.621 119.26C461.701 117.62 463.281 116.32 465.361 115.36C467.481 114.4 470.021 113.92 472.981 113.92C477.381 113.92 480.841 115 483.361 117.16C485.881 119.32 487.341 122.16 487.741 125.68H477.121C476.921 124.6 476.441 123.78 475.681 123.22C474.961 122.62 473.981 122.32 472.741 122.32C471.781 122.32 471.041 122.5 470.521 122.86C470.041 123.22 469.801 123.72 469.801 124.36C469.801 125.16 470.261 125.78 471.181 126.22C472.101 126.62 473.581 127.04 475.621 127.48C478.061 128 480.081 128.58 481.681 129.22C483.321 129.86 484.741 130.9 485.941 132.34C487.181 133.74 487.801 135.66 487.801 138.1C487.801 140.06 487.221 141.82 486.061 143.38C484.941 144.94 483.321 146.18 481.201 147.1C479.121 147.98 476.661 148.42 473.821 148.42ZM491.663 131.14C491.663 127.66 492.283 124.62 493.523 122.02C494.803 119.42 496.523 117.42 498.683 116.02C500.883 114.62 503.323 113.92 506.003 113.92C508.323 113.92 510.323 114.38 512.003 115.3C513.683 116.22 514.983 117.46 515.903 119.02V114.34H527.663V148H515.903V143.32C514.983 144.88 513.663 146.12 511.943 147.04C510.263 147.96 508.283 148.42 506.003 148.42C503.323 148.42 500.883 147.72 498.683 146.32C496.523 144.92 494.803 142.92 493.523 140.32C492.283 137.68 491.663 134.62 491.663 131.14ZM515.903 131.14C515.903 128.98 515.303 127.28 514.103 126.04C512.943 124.8 511.503 124.18 509.783 124.18C508.023 124.18 506.563 124.8 505.403 126.04C504.243 127.24 503.663 128.94 503.663 131.14C503.663 133.3 504.243 135.02 505.403 136.3C506.563 137.54 508.023 138.16 509.783 138.16C511.503 138.16 512.943 137.54 514.103 136.3C515.303 135.06 515.903 133.34 515.903 131.14ZM568.804 114.34V148H556.984V143.2C555.984 144.72 554.604 145.96 552.844 146.92C551.084 147.84 549.064 148.3 546.784 148.3C542.864 148.3 539.764 147.02 537.484 144.46C535.244 141.86 534.124 138.34 534.124 133.9V114.34H545.824V132.4C545.824 134.32 546.324 135.84 547.324 136.96C548.364 138.04 549.724 138.58 551.404 138.58C553.124 138.58 554.484 138.04 555.484 136.96C556.484 135.84 556.984 134.32 556.984 132.4V114.34H568.804ZM587.257 120.28C588.577 118.36 590.177 116.84 592.057 115.72C593.937 114.6 595.957 114.04 598.117 114.04V126.58H594.817C592.257 126.58 590.357 127.08 589.117 128.08C587.877 129.08 587.257 130.82 587.257 133.3V148H575.497V114.34H587.257V120.28ZM600.413 131.14C600.413 127.66 601.033 124.62 602.273 122.02C603.553 119.42 605.273 117.42 607.433 116.02C609.633 114.62 612.073 113.92 614.753 113.92C617.073 113.92 619.073 114.38 620.753 115.3C622.433 116.22 623.733 117.46 624.653 119.02V114.34H636.413V148H624.653V143.32C623.733 144.88 622.413 146.12 620.693 147.04C619.013 147.96 617.033 148.42 614.753 148.42C612.073 148.42 609.633 147.72 607.433 146.32C605.273 144.92 603.553 142.92 602.273 140.32C601.033 137.68 600.413 134.62 600.413 131.14ZM624.653 131.14C624.653 128.98 624.053 127.28 622.853 126.04C621.693 124.8 620.253 124.18 618.533 124.18C616.773 124.18 615.313 124.8 614.153 126.04C612.993 127.24 612.413 128.94 612.413 131.14C612.413 133.3 612.993 135.02 614.153 136.3C615.313 137.54 616.773 138.16 618.533 138.16C620.253 138.16 621.693 137.54 622.853 136.3C624.053 135.06 624.653 133.34 624.653 131.14ZM657.454 148.42C654.414 148.42 651.694 147.92 649.294 146.92C646.934 145.88 645.054 144.48 643.654 142.72C642.294 140.92 641.534 138.9 641.374 136.66H652.774C652.934 137.74 653.434 138.58 654.274 139.18C655.114 139.78 656.154 140.08 657.394 140.08C658.354 140.08 659.114 139.88 659.674 139.48C660.234 139.08 660.514 138.56 660.514 137.92C660.514 137.08 660.054 136.46 659.134 136.06C658.214 135.66 656.694 135.22 654.574 134.74C652.174 134.26 650.174 133.72 648.574 133.12C646.974 132.52 645.574 131.54 644.374 130.18C643.214 128.82 642.634 126.98 642.634 124.66C642.634 122.66 643.174 120.86 644.254 119.26C645.334 117.62 646.914 116.32 648.994 115.36C651.114 114.4 653.654 113.92 656.614 113.92C661.014 113.92 664.474 115 666.994 117.16C669.514 119.32 670.974 122.16 671.374 125.68H660.754C660.554 124.6 660.074 123.78 659.314 123.22C658.594 122.62 657.614 122.32 656.374 122.32C655.414 122.32 654.674 122.5 654.154 122.86C653.674 123.22 653.434 123.72 653.434 124.36C653.434 125.16 653.894 125.78 654.814 126.22C655.734 126.62 657.214 127.04 659.254 127.48C661.694 128 663.714 128.58 665.314 129.22C666.954 129.86 668.374 130.9 669.574 132.34C670.814 133.74 671.434 135.66 671.434 138.1C671.434 140.06 670.854 141.82 669.694 143.38C668.574 144.94 666.954 146.18 664.834 147.1C662.754 147.98 660.294 148.42 657.454 148.42Z" fill="#1359E0"/>
<path d="M329.952 193.872H325.504L324.768 196H322.416L326.432 184.816H329.04L333.056 196H330.688L329.952 193.872ZM329.344 192.08L327.728 187.408L326.112 192.08H329.344ZM341.842 186.992C342.503 186.992 343.084 187.125 343.586 187.392C344.087 187.648 344.482 187.984 344.77 188.4V187.136H347.026V196.064C347.026 196.885 346.86 197.616 346.53 198.256C346.199 198.907 345.703 199.419 345.042 199.792C344.38 200.176 343.58 200.368 342.642 200.368C341.383 200.368 340.348 200.075 339.538 199.488C338.738 198.901 338.284 198.101 338.178 197.088H340.402C340.519 197.493 340.77 197.813 341.154 198.048C341.548 198.293 342.023 198.416 342.578 198.416C343.228 198.416 343.756 198.219 344.162 197.824C344.567 197.44 344.77 196.853 344.77 196.064V194.688C344.482 195.104 344.082 195.451 343.57 195.728C343.068 196.005 342.492 196.144 341.842 196.144C341.095 196.144 340.412 195.952 339.794 195.568C339.175 195.184 338.684 194.645 338.322 193.952C337.97 193.248 337.794 192.443 337.794 191.536C337.794 190.64 337.97 189.845 338.322 189.152C338.684 188.459 339.17 187.925 339.778 187.552C340.396 187.179 341.084 186.992 341.842 186.992ZM344.77 191.568C344.77 191.024 344.663 190.56 344.45 190.176C344.236 189.781 343.948 189.483 343.586 189.28C343.223 189.067 342.834 188.96 342.418 188.96C342.002 188.96 341.618 189.061 341.266 189.264C340.914 189.467 340.626 189.765 340.402 190.16C340.188 190.544 340.082 191.003 340.082 191.536C340.082 192.069 340.188 192.539 340.402 192.944C340.626 193.339 340.914 193.643 341.266 193.856C341.628 194.069 342.012 194.176 342.418 194.176C342.834 194.176 343.223 194.075 343.586 193.872C343.948 193.659 344.236 193.36 344.45 192.976C344.663 192.581 344.77 192.112 344.77 191.568ZM350.349 186.08C349.955 186.08 349.624 185.957 349.357 185.712C349.101 185.456 348.973 185.141 348.973 184.768C348.973 184.395 349.101 184.085 349.357 183.84C349.624 183.584 349.955 183.456 350.349 183.456C350.744 183.456 351.069 183.584 351.325 183.84C351.592 184.085 351.725 184.395 351.725 184.768C351.725 185.141 351.592 185.456 351.325 185.712C351.069 185.957 350.744 186.08 350.349 186.08ZM351.453 187.136V196H349.213V187.136H351.453ZM356.275 188.976V193.264C356.275 193.563 356.344 193.781 356.483 193.92C356.632 194.048 356.877 194.112 357.219 194.112H358.259V196H356.851C354.963 196 354.019 195.083 354.019 193.248V188.976H352.963V187.136H354.019V184.944H356.275V187.136H358.259V188.976H356.275ZM364.862 187.008C365.534 187.008 366.131 187.157 366.654 187.456C367.176 187.744 367.582 188.176 367.87 188.752C368.168 189.317 368.318 190 368.318 190.8V196H366.078V191.104C366.078 190.4 365.902 189.861 365.55 189.488C365.198 189.104 364.718 188.912 364.11 188.912C363.491 188.912 363 189.104 362.638 189.488C362.286 189.861 362.11 190.4 362.11 191.104V196H359.87V184.16H362.11V188.24C362.398 187.856 362.782 187.557 363.262 187.344C363.742 187.12 364.275 187.008 364.862 187.008ZM378.816 187.136V196H376.56V194.88C376.272 195.264 375.893 195.568 375.424 195.792C374.965 196.005 374.464 196.112 373.92 196.112C373.226 196.112 372.613 195.968 372.08 195.68C371.546 195.381 371.125 194.949 370.816 194.384C370.517 193.808 370.368 193.125 370.368 192.336V187.136H372.608V192.016C372.608 192.72 372.784 193.264 373.136 193.648C373.488 194.021 373.968 194.208 374.576 194.208C375.194 194.208 375.68 194.021 376.032 193.648C376.384 193.264 376.56 192.72 376.56 192.016V187.136H378.816ZM383.266 188.432C383.554 188.005 383.949 187.659 384.45 187.392C384.962 187.125 385.543 186.992 386.194 186.992C386.951 186.992 387.634 187.179 388.242 187.552C388.861 187.925 389.346 188.459 389.698 189.152C390.061 189.835 390.242 190.629 390.242 191.536C390.242 192.443 390.061 193.248 389.698 193.952C389.346 194.645 388.861 195.184 388.242 195.568C387.634 195.952 386.951 196.144 386.194 196.144C385.533 196.144 384.951 196.016 384.45 195.76C383.959 195.493 383.565 195.152 383.266 194.736V196H381.026V184.16H383.266V188.432ZM387.954 191.536C387.954 191.003 387.842 190.544 387.618 190.16C387.405 189.765 387.117 189.467 386.754 189.264C386.402 189.061 386.018 188.96 385.602 188.96C385.197 188.96 384.813 189.067 384.45 189.28C384.098 189.483 383.81 189.781 383.586 190.176C383.373 190.571 383.266 191.035 383.266 191.568C383.266 192.101 383.373 192.565 383.586 192.96C383.81 193.355 384.098 193.659 384.45 193.872C384.813 194.075 385.197 194.176 385.602 194.176C386.018 194.176 386.402 194.069 386.754 193.856C387.117 193.643 387.405 193.339 387.618 192.944C387.842 192.549 387.954 192.08 387.954 191.536ZM395.106 191.536C395.106 190.64 395.282 189.845 395.634 189.152C395.997 188.459 396.482 187.925 397.09 187.552C397.709 187.179 398.397 186.992 399.154 186.992C399.815 186.992 400.391 187.125 400.882 187.392C401.383 187.659 401.783 187.995 402.082 188.4V187.136H404.338V196H402.082V194.704C401.794 195.12 401.394 195.467 400.882 195.744C400.381 196.011 399.799 196.144 399.138 196.144C398.391 196.144 397.709 195.952 397.09 195.568C396.482 195.184 395.997 194.645 395.634 193.952C395.282 193.248 395.106 192.443 395.106 191.536ZM402.082 191.568C402.082 191.024 401.975 190.56 401.762 190.176C401.549 189.781 401.261 189.483 400.898 189.28C400.535 189.067 400.146 188.96 399.73 188.96C399.314 188.96 398.93 189.061 398.578 189.264C398.226 189.467 397.938 189.765 397.714 190.16C397.501 190.544 397.394 191.003 397.394 191.536C397.394 192.069 397.501 192.539 397.714 192.944C397.938 193.339 398.226 193.643 398.578 193.856C398.941 194.069 399.325 194.176 399.73 194.176C400.146 194.176 400.535 194.075 400.898 193.872C401.261 193.659 401.549 193.36 401.762 192.976C401.975 192.581 402.082 192.112 402.082 191.568ZM405.95 191.568C405.95 190.651 406.137 189.851 406.51 189.168C406.883 188.475 407.401 187.941 408.062 187.568C408.723 187.184 409.481 186.992 410.334 186.992C411.433 186.992 412.339 187.269 413.054 187.824C413.779 188.368 414.265 189.136 414.51 190.128H412.094C411.966 189.744 411.747 189.445 411.438 189.232C411.139 189.008 410.766 188.896 410.318 188.896C409.678 188.896 409.171 189.131 408.798 189.6C408.425 190.059 408.238 190.715 408.238 191.568C408.238 192.411 408.425 193.067 408.798 193.536C409.171 193.995 409.678 194.224 410.318 194.224C411.225 194.224 411.817 193.819 412.094 193.008H414.51C414.265 193.968 413.779 194.731 413.054 195.296C412.329 195.861 411.422 196.144 410.334 196.144C409.481 196.144 408.723 195.957 408.062 195.584C407.401 195.2 406.883 194.667 406.51 193.984C406.137 193.291 405.95 192.485 405.95 191.568ZM418.759 188.976V193.264C418.759 193.563 418.828 193.781 418.967 193.92C419.116 194.048 419.362 194.112 419.703 194.112H420.743V196H419.335C417.447 196 416.503 195.083 416.503 193.248V188.976H415.447V187.136H416.503V184.944H418.759V187.136H420.743V188.976H418.759ZM423.49 186.08C423.095 186.08 422.765 185.957 422.498 185.712C422.242 185.456 422.114 185.141 422.114 184.768C422.114 184.395 422.242 184.085 422.498 183.84C422.765 183.584 423.095 183.456 423.49 183.456C423.885 183.456 424.21 183.584 424.466 183.84C424.733 184.085 424.866 184.395 424.866 184.768C424.866 185.141 424.733 185.456 424.466 185.712C424.21 185.957 423.885 186.08 423.49 186.08ZM424.594 187.136V196H422.354V187.136H424.594ZM430.743 196.144C429.89 196.144 429.122 195.957 428.439 195.584C427.756 195.2 427.218 194.661 426.823 193.968C426.439 193.275 426.247 192.475 426.247 191.568C426.247 190.661 426.444 189.861 426.839 189.168C427.244 188.475 427.794 187.941 428.487 187.568C429.18 187.184 429.954 186.992 430.807 186.992C431.66 186.992 432.434 187.184 433.127 187.568C433.82 187.941 434.364 188.475 434.759 189.168C435.164 189.861 435.367 190.661 435.367 191.568C435.367 192.475 435.159 193.275 434.743 193.968C434.338 194.661 433.783 195.2 433.079 195.584C432.386 195.957 431.607 196.144 430.743 196.144ZM430.743 194.192C431.148 194.192 431.527 194.096 431.879 193.904C432.242 193.701 432.53 193.403 432.743 193.008C432.956 192.613 433.063 192.133 433.063 191.568C433.063 190.725 432.839 190.08 432.391 189.632C431.954 189.173 431.415 188.944 430.775 188.944C430.135 188.944 429.596 189.173 429.159 189.632C428.732 190.08 428.519 190.725 428.519 191.568C428.519 192.411 428.727 193.061 429.143 193.52C429.57 193.968 430.103 194.192 430.743 194.192ZM441.922 187.008C442.978 187.008 443.832 187.344 444.482 188.016C445.133 188.677 445.458 189.605 445.458 190.8V196H443.218V191.104C443.218 190.4 443.042 189.861 442.69 189.488C442.338 189.104 441.858 188.912 441.25 188.912C440.632 188.912 440.141 189.104 439.778 189.488C439.426 189.861 439.25 190.4 439.25 191.104V196H437.01V187.136H439.25V188.24C439.549 187.856 439.928 187.557 440.386 187.344C440.856 187.12 441.368 187.008 441.922 187.008ZM454.009 188.976V193.264C454.009 193.563 454.078 193.781 454.217 193.92C454.366 194.048 454.612 194.112 454.953 194.112H455.993V196H454.585C452.697 196 451.753 195.083 451.753 193.248V188.976H450.697V187.136H451.753V184.944H454.009V187.136H455.993V188.976H454.009ZM461.54 196.144C460.687 196.144 459.919 195.957 459.236 195.584C458.553 195.2 458.015 194.661 457.62 193.968C457.236 193.275 457.044 192.475 457.044 191.568C457.044 190.661 457.241 189.861 457.636 189.168C458.041 188.475 458.591 187.941 459.284 187.568C459.977 187.184 460.751 186.992 461.604 186.992C462.457 186.992 463.231 187.184 463.924 187.568C464.617 187.941 465.161 188.475 465.556 189.168C465.961 189.861 466.164 190.661 466.164 191.568C466.164 192.475 465.956 193.275 465.54 193.968C465.135 194.661 464.58 195.2 463.876 195.584C463.183 195.957 462.404 196.144 461.54 196.144ZM461.54 194.192C461.945 194.192 462.324 194.096 462.676 193.904C463.039 193.701 463.327 193.403 463.54 193.008C463.753 192.613 463.86 192.133 463.86 191.568C463.86 190.725 463.636 190.08 463.188 189.632C462.751 189.173 462.212 188.944 461.572 188.944C460.932 188.944 460.393 189.173 459.956 189.632C459.529 190.08 459.316 190.725 459.316 191.568C459.316 192.411 459.524 193.061 459.94 193.52C460.367 193.968 460.9 194.192 461.54 194.192ZM482.628 187.008C483.716 187.008 484.59 187.344 485.252 188.016C485.924 188.677 486.26 189.605 486.26 190.8V196H484.02V191.104C484.02 190.411 483.844 189.883 483.492 189.52C483.14 189.147 482.66 188.96 482.052 188.96C481.444 188.96 480.958 189.147 480.596 189.52C480.244 189.883 480.068 190.411 480.068 191.104V196H477.828V191.104C477.828 190.411 477.652 189.883 477.3 189.52C476.948 189.147 476.468 188.96 475.86 188.96C475.241 188.96 474.75 189.147 474.388 189.52C474.036 189.883 473.86 190.411 473.86 191.104V196H471.62V187.136H473.86V188.208C474.148 187.835 474.516 187.541 474.964 187.328C475.422 187.115 475.924 187.008 476.468 187.008C477.161 187.008 477.78 187.157 478.324 187.456C478.868 187.744 479.289 188.16 479.588 188.704C479.876 188.192 480.292 187.781 480.836 187.472C481.39 187.163 481.988 187.008 482.628 187.008ZM489.521 186.08C489.127 186.08 488.796 185.957 488.529 185.712C488.273 185.456 488.145 185.141 488.145 184.768C488.145 184.395 488.273 184.085 488.529 183.84C488.796 183.584 489.127 183.456 489.521 183.456C489.916 183.456 490.241 183.584 490.497 183.84C490.764 184.085 490.897 184.395 490.897 184.768C490.897 185.141 490.764 185.456 490.497 185.712C490.241 185.957 489.916 186.08 489.521 186.08ZM490.625 187.136V196H488.385V187.136H490.625ZM497.75 187.008C498.806 187.008 499.66 187.344 500.31 188.016C500.961 188.677 501.286 189.605 501.286 190.8V196H499.046V191.104C499.046 190.4 498.87 189.861 498.518 189.488C498.166 189.104 497.686 188.912 497.078 188.912C496.46 188.912 495.969 189.104 495.606 189.488C495.254 189.861 495.078 190.4 495.078 191.104V196H492.838V187.136H495.078V188.24C495.377 187.856 495.756 187.557 496.214 187.344C496.684 187.12 497.196 187.008 497.75 187.008ZM504.553 186.08C504.158 186.08 503.827 185.957 503.561 185.712C503.305 185.456 503.177 185.141 503.177 184.768C503.177 184.395 503.305 184.085 503.561 183.84C503.827 183.584 504.158 183.456 504.553 183.456C504.947 183.456 505.273 183.584 505.529 183.84C505.795 184.085 505.929 184.395 505.929 184.768C505.929 185.141 505.795 185.456 505.529 185.712C505.273 185.957 504.947 186.08 504.553 186.08ZM505.657 187.136V196H503.417V187.136H505.657ZM511.934 188.976H510.382V196H508.11V188.976H507.102V187.136H508.11V186.688C508.11 185.6 508.419 184.8 509.038 184.288C509.656 183.776 510.59 183.536 511.838 183.568V185.456C511.294 185.445 510.915 185.536 510.702 185.728C510.488 185.92 510.382 186.267 510.382 186.768V187.136H511.934V188.976ZM521.865 187.136L516.377 200.192H513.993L515.913 195.776L512.361 187.136H514.873L517.161 193.328L519.481 187.136H521.865ZM535.365 187.136L529.877 200.192H527.493L529.413 195.776L525.861 187.136H528.373L530.661 193.328L532.981 187.136H535.365ZM540.509 196.144C539.655 196.144 538.887 195.957 538.205 195.584C537.522 195.2 536.983 194.661 536.589 193.968C536.205 193.275 536.013 192.475 536.013 191.568C536.013 190.661 536.21 189.861 536.605 189.168C537.01 188.475 537.559 187.941 538.253 187.568C538.946 187.184 539.719 186.992 540.573 186.992C541.426 186.992 542.199 187.184 542.893 187.568C543.586 187.941 544.13 188.475 544.525 189.168C544.93 189.861 545.133 190.661 545.133 191.568C545.133 192.475 544.925 193.275 544.509 193.968C544.103 194.661 543.549 195.2 542.845 195.584C542.151 195.957 541.373 196.144 540.509 196.144ZM540.509 194.192C540.914 194.192 541.293 194.096 541.645 193.904C542.007 193.701 542.295 193.403 542.509 193.008C542.722 192.613 542.829 192.133 542.829 191.568C542.829 190.725 542.605 190.08 542.157 189.632C541.719 189.173 541.181 188.944 540.541 188.944C539.901 188.944 539.362 189.173 538.925 189.632C538.498 190.08 538.285 190.725 538.285 191.568C538.285 192.411 538.493 193.061 538.909 193.52C539.335 193.968 539.869 194.192 540.509 194.192ZM555.144 187.136V196H552.888V194.88C552.6 195.264 552.221 195.568 551.752 195.792C551.293 196.005 550.792 196.112 550.248 196.112C549.555 196.112 548.941 195.968 548.408 195.68C547.875 195.381 547.453 194.949 547.144 194.384C546.845 193.808 546.696 193.125 546.696 192.336V187.136H548.936V192.016C548.936 192.72 549.112 193.264 549.464 193.648C549.816 194.021 550.296 194.208 550.904 194.208C551.523 194.208 552.008 194.021 552.36 193.648C552.712 193.264 552.888 192.72 552.888 192.016V187.136H555.144ZM559.594 188.512C559.882 188.043 560.255 187.675 560.714 187.408C561.183 187.141 561.717 187.008 562.314 187.008V189.36H561.722C561.018 189.36 560.485 189.525 560.122 189.856C559.77 190.187 559.594 190.763 559.594 191.584V196H557.354V187.136H559.594V188.512ZM567.091 190.4C567.091 189.301 567.337 188.32 567.827 187.456C568.329 186.581 569.006 185.904 569.859 185.424C570.723 184.933 571.689 184.688 572.755 184.688C574.003 184.688 575.097 185.008 576.035 185.648C576.974 186.288 577.63 187.173 578.003 188.304H575.427C575.171 187.771 574.809 187.371 574.339 187.104C573.881 186.837 573.347 186.704 572.739 186.704C572.089 186.704 571.507 186.859 570.995 187.168C570.494 187.467 570.099 187.893 569.811 188.448C569.534 189.003 569.395 189.653 569.395 190.4C569.395 191.136 569.534 191.787 569.811 192.352C570.099 192.907 570.494 193.339 570.995 193.648C571.507 193.947 572.089 194.096 572.739 194.096C573.347 194.096 573.881 193.963 574.339 193.696C574.809 193.419 575.171 193.013 575.427 192.48H578.003C577.63 193.621 576.974 194.512 576.035 195.152C575.107 195.781 574.014 196.096 572.755 196.096C571.689 196.096 570.723 195.856 569.859 195.376C569.006 194.885 568.329 194.208 567.827 193.344C567.337 192.48 567.091 191.499 567.091 190.4ZM583.773 196.112C582.994 196.112 582.29 195.979 581.661 195.712C581.042 195.445 580.551 195.061 580.189 194.56C579.826 194.059 579.639 193.467 579.629 192.784H582.029C582.061 193.243 582.221 193.605 582.509 193.872C582.807 194.139 583.213 194.272 583.725 194.272C584.247 194.272 584.658 194.149 584.957 193.904C585.255 193.648 585.405 193.317 585.405 192.912C585.405 192.581 585.303 192.309 585.101 192.096C584.898 191.883 584.642 191.717 584.333 191.6C584.034 191.472 583.618 191.333 583.085 191.184C582.359 190.971 581.767 190.763 581.309 190.56C580.861 190.347 580.471 190.032 580.141 189.616C579.821 189.189 579.661 188.624 579.661 187.92C579.661 187.259 579.826 186.683 580.157 186.192C580.487 185.701 580.951 185.328 581.549 185.072C582.146 184.805 582.829 184.672 583.597 184.672C584.749 184.672 585.682 184.955 586.397 185.52C587.122 186.075 587.522 186.853 587.597 187.856H585.133C585.111 187.472 584.946 187.157 584.637 186.912C584.338 186.656 583.938 186.528 583.437 186.528C582.999 186.528 582.647 186.64 582.381 186.864C582.125 187.088 581.997 187.413 581.997 187.84C581.997 188.139 582.093 188.389 582.285 188.592C582.487 188.784 582.733 188.944 583.021 189.072C583.319 189.189 583.735 189.328 584.269 189.488C584.994 189.701 585.586 189.915 586.045 190.128C586.503 190.341 586.898 190.661 587.229 191.088C587.559 191.515 587.725 192.075 587.725 192.768C587.725 193.365 587.57 193.92 587.26 194.432C586.951 194.944 586.498 195.355 585.901 195.664C585.303 195.963 584.594 196.112 583.773 196.112ZM593.523 196.112C592.744 196.112 592.04 195.979 591.411 195.712C590.792 195.445 590.301 195.061 589.939 194.56C589.576 194.059 589.389 193.467 589.379 192.784H591.779C591.811 193.243 591.971 193.605 592.259 193.872C592.557 194.139 592.963 194.272 593.475 194.272C593.997 194.272 594.408 194.149 594.707 193.904C595.005 193.648 595.155 193.317 595.155 192.912C595.155 192.581 595.053 192.309 594.851 192.096C594.648 191.883 594.392 191.717 594.083 191.6C593.784 191.472 593.368 191.333 592.835 191.184C592.109 190.971 591.517 190.763 591.059 190.56C590.611 190.347 590.221 190.032 589.891 189.616C589.571 189.189 589.411 188.624 589.411 187.92C589.411 187.259 589.576 186.683 589.907 186.192C590.237 185.701 590.701 185.328 591.299 185.072C591.896 184.805 592.579 184.672 593.347 184.672C594.499 184.672 595.432 184.955 596.147 185.52C596.872 186.075 597.272 186.853 597.347 187.856H594.883C594.861 187.472 594.696 187.157 594.387 186.912C594.088 186.656 593.688 186.528 593.187 186.528C592.749 186.528 592.397 186.64 592.131 186.864C591.875 187.088 591.747 187.413 591.747 187.84C591.747 188.139 591.843 188.389 592.035 188.592C592.237 188.784 592.483 188.944 592.771 189.072C593.069 189.189 593.485 189.328 594.019 189.488C594.744 189.701 595.336 189.915 595.795 190.128C596.253 190.341 596.648 190.661 596.979 191.088C597.309 191.515 597.475 192.075 597.475 192.768C597.475 193.365 597.32 193.92 597.01 194.432C596.701 194.944 596.248 195.355 595.651 195.664C595.053 195.963 594.344 196.112 593.523 196.112ZM611.821 196L610.605 194.8C609.57 195.728 608.306 196.192 606.813 196.192C605.992 196.192 605.266 196.053 604.637 195.776C604.018 195.488 603.538 195.088 603.197 194.576C602.856 194.053 602.685 193.451 602.685 192.768C602.685 192.032 602.893 191.371 603.309 190.784C603.725 190.197 604.338 189.723 605.149 189.36C604.861 189.008 604.653 188.672 604.525 188.352C604.397 188.021 604.333 187.669 604.333 187.296C604.333 186.784 604.466 186.325 604.733 185.92C605 185.504 605.378 185.179 605.869 184.944C606.37 184.709 606.952 184.592 607.613 184.592C608.285 184.592 608.861 184.72 609.341 184.976C609.821 185.232 610.178 185.573 610.413 186C610.648 186.427 610.749 186.901 610.717 187.424H608.541C608.552 187.072 608.466 186.805 608.285 186.624C608.104 186.432 607.858 186.336 607.549 186.336C607.25 186.336 607 186.427 606.797 186.608C606.605 186.779 606.509 187.003 606.509 187.28C606.509 187.547 606.589 187.813 606.749 188.08C606.909 188.336 607.17 188.656 607.533 189.04L610.349 191.824C610.37 191.803 610.386 191.781 610.397 191.76C610.408 191.739 610.418 191.717 610.429 191.696L611.341 190.176H613.677L612.557 192.144C612.344 192.56 612.114 192.955 611.869 193.328L614.573 196H611.821ZM606.877 194.336C607.752 194.336 608.525 194.027 609.197 193.408L606.445 190.688C605.41 191.147 604.893 191.797 604.893 192.64C604.893 193.12 605.074 193.525 605.437 193.856C605.8 194.176 606.28 194.336 606.877 194.336ZM626.007 184.832V192.672C626.007 193.76 625.692 194.608 625.063 195.216C624.433 195.813 623.591 196.112 622.535 196.112C621.468 196.112 620.604 195.803 619.943 195.184C619.292 194.565 618.967 193.701 618.967 192.592H621.207C621.217 193.072 621.329 193.445 621.543 193.712C621.767 193.979 622.087 194.112 622.503 194.112C622.908 194.112 623.217 193.984 623.431 193.728C623.644 193.472 623.751 193.12 623.751 192.672V184.832H626.007ZM632.476 196.112C631.697 196.112 630.993 195.979 630.364 195.712C629.745 195.445 629.254 195.061 628.892 194.56C628.529 194.059 628.342 193.467 628.332 192.784H630.732C630.764 193.243 630.924 193.605 631.212 193.872C631.51 194.139 631.916 194.272 632.428 194.272C632.95 194.272 633.361 194.149 633.66 193.904C633.958 193.648 634.108 193.317 634.108 192.912C634.108 192.581 634.006 192.309 633.804 192.096C633.601 191.883 633.345 191.717 633.036 191.6C632.737 191.472 632.321 191.333 631.788 191.184C631.062 190.971 630.47 190.763 630.012 190.56C629.564 190.347 629.174 190.032 628.844 189.616C628.524 189.189 628.364 188.624 628.364 187.92C628.364 187.259 628.529 186.683 628.86 186.192C629.19 185.701 629.654 185.328 630.252 185.072C630.849 184.805 631.532 184.672 632.3 184.672C633.452 184.672 634.385 184.955 635.1 185.52C635.825 186.075 636.225 186.853 636.3 187.856H633.836C633.814 187.472 633.649 187.157 633.34 186.912C633.041 186.656 632.641 186.528 632.14 186.528C631.702 186.528 631.35 186.64 631.084 186.864C630.828 187.088 630.7 187.413 630.7 187.84C630.7 188.139 630.796 188.389 630.988 188.592C631.19 188.784 631.436 188.944 631.724 189.072C632.022 189.189 632.438 189.328 632.972 189.488C633.697 189.701 634.289 189.915 634.748 190.128C635.206 190.341 635.601 190.661 635.932 191.088C636.262 191.515 636.428 192.075 636.428 192.768C636.428 193.365 636.273 193.92 635.964 194.432C635.654 194.944 635.201 195.355 634.604 195.664C634.006 195.963 633.297 196.112 632.476 196.112ZM646.246 188.976H644.694V196H642.422V188.976H641.414V187.136H642.422V186.688C642.422 185.6 642.731 184.8 643.35 184.288C643.969 183.776 644.902 183.536 646.15 183.568V185.456C645.606 185.445 645.227 185.536 645.014 185.728C644.801 185.92 644.694 186.267 644.694 186.768V187.136H646.246V188.976ZM648.834 186.08C648.439 186.08 648.108 185.957 647.842 185.712C647.586 185.456 647.458 185.141 647.458 184.768C647.458 184.395 647.586 184.085 647.842 183.84C648.108 183.584 648.439 183.456 648.834 183.456C649.228 183.456 649.554 183.584 649.81 183.84C650.076 184.085 650.21 184.395 650.21 184.768C650.21 185.141 650.076 185.456 649.81 185.712C649.554 185.957 649.228 186.08 648.834 186.08ZM649.938 187.136V196H647.698V187.136H649.938ZM654.391 184.16V196H652.151V184.16H654.391ZM664.844 191.376C664.844 191.696 664.823 191.984 664.78 192.24H658.3C658.353 192.88 658.577 193.381 658.972 193.744C659.367 194.107 659.852 194.288 660.428 194.288C661.26 194.288 661.852 193.931 662.204 193.216H664.62C664.364 194.069 663.873 194.773 663.148 195.328C662.423 195.872 661.532 196.144 660.476 196.144C659.623 196.144 658.855 195.957 658.172 195.584C657.5 195.2 656.972 194.661 656.588 193.968C656.215 193.275 656.028 192.475 656.028 191.568C656.028 190.651 656.215 189.845 656.588 189.152C656.961 188.459 657.484 187.925 658.156 187.552C658.828 187.179 659.601 186.992 660.476 186.992C661.319 186.992 662.071 187.173 662.732 187.536C663.404 187.899 663.921 188.416 664.284 189.088C664.657 189.749 664.844 190.512 664.844 191.376ZM662.524 190.736C662.513 190.16 662.305 189.701 661.9 189.36C661.495 189.008 660.999 188.832 660.412 188.832C659.857 188.832 659.388 189.003 659.004 189.344C658.631 189.675 658.401 190.139 658.316 190.736H662.524ZM669.871 196.144C669.146 196.144 668.495 196.016 667.919 195.76C667.343 195.493 666.884 195.136 666.543 194.688C666.212 194.24 666.031 193.744 665.999 193.2H668.255C668.298 193.541 668.463 193.824 668.751 194.048C669.05 194.272 669.418 194.384 669.855 194.384C670.282 194.384 670.612 194.299 670.847 194.128C671.092 193.957 671.215 193.739 671.215 193.472C671.215 193.184 671.066 192.971 670.767 192.832C670.479 192.683 670.015 192.523 669.375 192.352C668.714 192.192 668.17 192.027 667.743 191.856C667.327 191.685 666.964 191.424 666.655 191.072C666.356 190.72 666.207 190.245 666.207 189.648C666.207 189.157 666.346 188.709 666.623 188.304C666.911 187.899 667.316 187.579 667.839 187.344C668.372 187.109 668.996 186.992 669.711 186.992C670.767 186.992 671.61 187.259 672.239 187.792C672.868 188.315 673.215 189.024 673.279 189.92H671.135C671.103 189.568 670.954 189.291 670.687 189.088C670.431 188.875 670.084 188.768 669.647 188.768C669.242 188.768 668.927 188.843 668.703 188.992C668.49 189.141 668.383 189.349 668.383 189.616C668.383 189.915 668.532 190.144 668.831 190.304C669.13 190.453 669.594 190.608 670.223 190.768C670.863 190.928 671.391 191.093 671.807 191.264C672.223 191.435 672.58 191.701 672.879 192.064C673.188 192.416 673.348 192.885 673.359 193.472C673.359 193.984 673.215 194.443 672.927 194.848C672.65 195.253 672.244 195.573 671.711 195.808C671.188 196.032 670.575 196.144 669.871 196.144Z" fill="black"/>
</g>
<defs>
<filter id="filter0_d" x="0" y="0" width="749" height="336" filterUnits="userSpaceOnUse" color-interpolation-filters="sRGB">
<feFlood flood-opacity="0" result="BackgroundImageFix"/>
<feColorMatrix in="SourceAlpha" type="matrix" values="0 0 0 0 0 0 0 0 0 0 0 0 0 0 0 0 0 0 127 0"/>
<feOffset dy="20"/>
<feGaussianBlur stdDeviation="20"/>
<feColorMatrix type="matrix" values="0 0 0 0 0 0 0 0 0 0 0 0 0 0 0 0 0 0 0.25 0"/>
<feBlend mode="normal" in2="BackgroundImageFix" result="effect1_dropShadow"/>
<feBlend mode="normal" in="SourceGraphic" in2="effect1_dropShadow" result="shape"/>
</filter>
<filter id="filter1_d" x="55" y="45" width="230" height="230" filterUnits="userSpaceOnUse" color-interpolation-filters="sRGB">
<feFlood flood-opacity="0" result="BackgroundImageFix"/>
<feColorMatrix in="SourceAlpha" type="matrix" values="0 0 0 0 0 0 0 0 0 0 0 0 0 0 0 0 0 0 127 0"/>
<feOffset dy="10"/>
<feGaussianBlur stdDeviation="9.5"/>
<feColorMatrix type="matrix" values="0 0 0 0 0.227396 0 0 0 0 0.673862 0 0 0 0 0.925 0 0 0 0.25 0"/>
<feBlend mode="normal" in2="BackgroundImageFix" result="effect1_dropShadow"/>
<feBlend mode="normal" in="SourceGraphic" in2="effect1_dropShadow" result="shape"/>
</filter>
</defs>
</svg>
